<svg xmlns="http://www.w3.org/2000/svg" width="800" height="600"><rect width="800" height="600" x="0" y="0" fill="#FFFFFF" id="background"/><g transform="translate(50,10)" id="viz"><g id="y axis" fill="none" font-size="10" font-family="sans-serif" text-anchor="end"><path class="domain" stroke="currentColor" d="M-6,560H0V0H-6"/><g class="tick" opacity="1" transform="translate(0,560)"><line stroke="currentColor" x2="-6"/><text fill="currentColor" x="-9" dy="0.32em">0</text></g><g class="tick" opacity="1" transform="translate(0,516.9230769230769)"><line stroke="currentColor" x2="-6"/><text fill="currentColor" x="-9" dy="0.32em">5,000</text></g><g class="tick" opacity="1" transform="translate(0,473.84615384615387)"><line stroke="currentColor" x2="-6"/><text fill="currentColor" x="-9" dy="0.32em">10,000</text></g><g class="tick" opacity="1" transform="translate(0,430.7692307692307)"><line stroke="currentColor" x2="-6"/><text fill="currentColor" x="-9" dy="0.32em">15,000</text></g><g class="tick" opacity="1" transform="translate(0,387.6923076923077)"><line stroke="currentColor" x2="-6"/><text fill="currentColor" x="-9" dy="0.32em">20,000</text></g><g class="tick" opacity="1" transform="translate(0,344.61538461538464)"><line stroke="currentColor" x2="-6"/><text fill="currentColor" x="-9" dy="0.32em">25,000</text></g><g class="tick" opacity="1" transform="translate(0,301.53846153846155)"><line stroke="currentColor" x2="-6"/><text fill="currentColor" x="-9" dy="0.32em">30,000</text></g><g class="tick" opacity="1" transform="translate(0,258.46153846153845)"><line stroke="currentColor" x2="-6"/><text fill="currentColor" x="-9" dy="0.32em">35,000</text></g><g class="tick" opacity="1" transform="translate(0,215.38461538461536)"><line stroke="currentColor" x2="-6"/><text fill="currentColor" x="-9" dy="0.32em">40,000</text></g><g class="tick" opacity="1" transform="translate(0,172.30769230769232)"><line stroke="currentColor" x2="-6"/><text fill="currentColor" x="-9" dy="0.32em">45,000</text></g><g class="tick" opacity="1" transform="translate(0,129.2307692307692)"><line stroke="currentColor" x2="-6"/><text fill="currentColor" x="-9" dy="0.32em">50,000</text></g><g class="tick" opacity="1" transform="translate(0,86.15384615384616)"><line stroke="currentColor" x2="-6"/><text fill="currentColor" x="-9" dy="0.32em">55,000</text></g><g class="tick" opacity="1" transform="translate(0,43.07692307692305)"><line stroke="currentColor" x2="-6"/><text fill="currentColor" x="-9" dy="0.32em">60,000</text></g><g class="tick" opacity="1" transform="translate(0,0)"><line stroke="currentColor" x2="-6"/><text fill="currentColor" x="-9" dy="0.32em">65,000</text></g><text x="4" text-anchor="start" dominant-baseline="hanging" style="font-family: Arial, sans-serif; font-size: 12px; fill: rgb(123, 123, 123); font-weight: bold;">pasos</text></g><g id="x axis" transform="translate(0,560)" fill="none" font-size="10" font-family="sans-serif" text-anchor="middle"><path class="domain" stroke="currentColor" d="M0,6V0H740V6"/><g class="tick" opacity="1" transform="translate(48,0)"><line stroke="currentColor" y2="6"/><text fill="currentColor" y="9" dy="0.71em">2018</text></g><g class="tick" opacity="1" transform="translate(140,0)"><line stroke="currentColor" y2="6"/><text fill="currentColor" y="9" dy="0.71em">2019</text></g><g class="tick" opacity="1" transform="translate(232,0)"><line stroke="currentColor" y2="6"/><text fill="currentColor" y="9" dy="0.71em">2020</text></g><g class="tick" opacity="1" transform="translate(324,0)"><line stroke="currentColor" y2="6"/><text fill="currentColor" y="9" dy="0.71em">2021</text></g><g class="tick" opacity="1" transform="translate(416,0)"><line stroke="currentColor" y2="6"/><text fill="currentColor" y="9" dy="0.71em">2022</text></g><g class="tick" opacity="1" transform="translate(508,0)"><line stroke="currentColor" y2="6"/><text fill="currentColor" y="9" dy="0.71em">2023</text></g><g class="tick" opacity="1" transform="translate(600,0)"><line stroke="currentColor" y2="6"/><text fill="currentColor" y="9" dy="0.71em">2024</text></g><g class="tick" opacity="1" transform="translate(692,0)"><line stroke="currentColor" y2="6"/><text fill="currentColor" y="9" dy="0.71em">2025</text></g></g><g id="boxplots"><g><line x1="48" x2="48" y1="463.75753846153845" y2="559.3796923076924" stroke="#1f77b4" stroke-dasharray="4"/><line x1="35" x2="61" y1="463.75753846153845" y2="463.75753846153845" stroke="#1f77b4"/><line x1="35" x2="61" y1="559.3796923076924" y2="559.3796923076924" stroke="#1f77b4"/><rect x="35" y="504.4307692307692" width="26" height="39.89353846153847" fill="#1f77b4"/><line x1="35" y1="530.3716923076923" x2="61" y2="530.3716923076923" stroke="#FFFFFF"/></g><g><line x1="140" x2="140" y1="442.1038461538462" y2="558.4233846153846" stroke="#1f77b4" stroke-dasharray="4"/><line x1="127" x2="153" y1="442.1038461538462" y2="442.1038461538462" stroke="#1f77b4"/><line x1="127" x2="153" y1="558.4233846153846" y2="558.4233846153846" stroke="#1f77b4"/><rect x="127" y="499.0784615384615" width="26" height="37.983076923076965" fill="#1f77b4"/><line x1="127" y1="519.8221538461538" x2="153" y2="519.8221538461538" stroke="#FFFFFF"/><circle r="1" cx="140" cy="440.9353846153846" fill="#FFFFFF" stroke="#1f77b4"/><circle r="1" cx="140" cy="440.06523076923077" fill="#FFFFFF" stroke="#1f77b4"/></g><g><line x1="232" x2="232" y1="489.4486153846154" y2="559.4572307692308" stroke="#1f77b4" stroke-dasharray="4"/><line x1="219" x2="245" y1="489.4486153846154" y2="489.4486153846154" stroke="#1f77b4"/><line x1="219" x2="245" y1="559.4572307692308" y2="559.4572307692308" stroke="#1f77b4"/><rect x="219" y="528.876923076923" width="26" height="26.28553846153841" fill="#1f77b4"/><line x1="219" y1="547.7446153846154" x2="245" y2="547.7446153846154" stroke="#FFFFFF"/><circle r="1" cx="232" cy="487.41538461538465" fill="#FFFFFF" stroke="#1f77b4"/><circle r="1" cx="232" cy="461.54338461538464" fill="#FFFFFF" stroke="#1f77b4"/><circle r="1" cx="232" cy="458.9156923076923" fill="#FFFFFF" stroke="#1f77b4"/><circle r="1" cx="232" cy="452.72984615384615" fill="#FFFFFF" stroke="#1f77b4"/><circle r="1" cx="232" cy="456.5550769230769" fill="#FFFFFF" stroke="#1f77b4"/><circle r="1" cx="232" cy="464.23999999999995" fill="#FFFFFF" stroke="#1f77b4"/><circle r="1" cx="232" cy="481.824" fill="#FFFFFF" stroke="#1f77b4"/><circle r="1" cx="232" cy="487.1396923076923" fill="#FFFFFF" stroke="#1f77b4"/><circle r="1" cx="232" cy="482.53046153846157" fill="#FFFFFF" stroke="#1f77b4"/><circle r="1" cx="232" cy="486.82092307692307" fill="#FFFFFF" stroke="#1f77b4"/><circle r="1" cx="232" cy="477.31815384615385" fill="#FFFFFF" stroke="#1f77b4"/><circle r="1" cx="232" cy="428.15015384615384" fill="#FFFFFF" stroke="#1f77b4"/><circle r="1" cx="232" cy="484.3827692307692" fill="#FFFFFF" stroke="#1f77b4"/><circle r="1" cx="232" cy="409.43753846153845" fill="#FFFFFF" stroke="#1f77b4"/><circle r="1" cx="232" cy="478.2830769230769" fill="#FFFFFF" stroke="#1f77b4"/><circle r="1" cx="232" cy="367.6012307692307" fill="#FFFFFF" stroke="#1f77b4"/><circle r="1" cx="232" cy="442.6326153846154" fill="#FFFFFF" stroke="#1f77b4"/></g><g><line x1="324" x2="324" y1="336.59876923076916" y2="555.1753846153846" stroke="#1f77b4" stroke-dasharray="4"/><line x1="311" x2="337" y1="336.59876923076916" y2="336.59876923076916" stroke="#1f77b4"/><line x1="311" x2="337" y1="555.1753846153846" y2="555.1753846153846" stroke="#1f77b4"/><rect x="311" y="432.8110769230769" width="26" height="64.14153846153852" fill="#1f77b4"/><line x1="311" y1="472.9673846153846" x2="337" y2="472.9673846153846" stroke="#FFFFFF"/><circle r="1" cx="324" cy="331.62338461538457" fill="#FFFFFF" stroke="#1f77b4"/><circle r="1" cx="324" cy="317.9593846153846" fill="#FFFFFF" stroke="#1f77b4"/><circle r="1" cx="324" cy="314.6166153846154" fill="#FFFFFF" stroke="#1f77b4"/><circle r="1" cx="324" cy="329.15076923076924" fill="#FFFFFF" stroke="#1f77b4"/><circle r="1" cx="324" cy="295.02523076923075" fill="#FFFFFF" stroke="#1f77b4"/><circle r="1" cx="324" cy="265.7932307692307" fill="#FFFFFF" stroke="#1f77b4"/><circle r="1" cx="324" cy="286.6683076923077" fill="#FFFFFF" stroke="#1f77b4"/><circle r="1" cx="324" cy="276.0972307692308" fill="#FFFFFF" stroke="#1f77b4"/><circle r="1" cx="324" cy="258.6510769230769" fill="#FFFFFF" stroke="#1f77b4"/><circle r="1" cx="324" cy="322.11199999999997" fill="#FFFFFF" stroke="#1f77b4"/><circle r="1" cx="324" cy="333.94953846153845" fill="#FFFFFF" stroke="#1f77b4"/></g><g><line x1="416" x2="416" y1="308.38338461538467" y2="558.7938461538462" stroke="#1f77b4" stroke-dasharray="4"/><line x1="403" x2="429" y1="308.38338461538467" y2="308.38338461538467" stroke="#1f77b4"/><line x1="403" x2="429" y1="558.7938461538462" y2="558.7938461538462" stroke="#1f77b4"/><rect x="403" y="404.82830769230765" width="26" height="64.2966153846154" fill="#1f77b4"/><line x1="403" y1="441.2541538461538" x2="429" y2="441.2541538461538" stroke="#FFFFFF"/><circle r="1" cx="416" cy="204.99446153846154" fill="#FFFFFF" stroke="#1f77b4"/><circle r="1" cx="416" cy="209.5950769230769" fill="#FFFFFF" stroke="#1f77b4"/><circle r="1" cx="416" cy="295.0510769230769" fill="#FFFFFF" stroke="#1f77b4"/><circle r="1" cx="416" cy="302.3827692307692" fill="#FFFFFF" stroke="#1f77b4"/><circle r="1" cx="416" cy="282.688" fill="#FFFFFF" stroke="#1f77b4"/><circle r="1" cx="416" cy="306.86276923076923" fill="#FFFFFF" stroke="#1f77b4"/><circle r="1" cx="416" cy="292.8110769230769" fill="#FFFFFF" stroke="#1f77b4"/></g><g><line x1="508" x2="508" y1="347.85046153846156" y2="541.0203076923077" stroke="#1f77b4" stroke-dasharray="4"/><line x1="495" x2="521" y1="347.85046153846156" y2="347.85046153846156" stroke="#1f77b4"/><line x1="495" x2="521" y1="541.0203076923077" y2="541.0203076923077" stroke="#1f77b4"/><rect x="495" y="428.8910769230769" width="26" height="54.02707692307689" fill="#1f77b4"/><line x1="495" y1="453.2553846153846" x2="521" y2="453.2553846153846" stroke="#FFFFFF"/><circle r="1" cx="508" cy="345.3907692307692" fill="#FFFFFF" stroke="#1f77b4"/><circle r="1" cx="508" cy="338.50707692307697" fill="#FFFFFF" stroke="#1f77b4"/><circle r="1" cx="508" cy="340.8332307692308" fill="#FFFFFF" stroke="#1f77b4"/><circle r="1" cx="508" cy="330.76184615384614" fill="#FFFFFF" stroke="#1f77b4"/><circle r="1" cx="508" cy="325.88553846153843" fill="#FFFFFF" stroke="#1f77b4"/><circle r="1" cx="508" cy="338.8086153846154" fill="#FFFFFF" stroke="#1f77b4"/><circle r="1" cx="508" cy="324.9809230769231" fill="#FFFFFF" stroke="#1f77b4"/><circle r="1" cx="508" cy="325.18769230769226" fill="#FFFFFF" stroke="#1f77b4"/><circle r="1" cx="508" cy="341.97046153846156" fill="#FFFFFF" stroke="#1f77b4"/><circle r="1" cx="508" cy="316.5550769230769" fill="#FFFFFF" stroke="#1f77b4"/><circle r="1" cx="508" cy="293.4141538461539" fill="#FFFFFF" stroke="#1f77b4"/><circle r="1" cx="508" cy="330.51200000000006" fill="#FFFFFF" stroke="#1f77b4"/><circle r="1" cx="508" cy="330.80492307692305" fill="#FFFFFF" stroke="#1f77b4"/></g><g><line x1="600" x2="600" y1="372.63584615384616" y2="511.8346153846154" stroke="#1f77b4" stroke-dasharray="4"/><line x1="587" x2="613" y1="372.63584615384616" y2="372.63584615384616" stroke="#1f77b4"/><line x1="587" x2="613" y1="511.8346153846154" y2="511.8346153846154" stroke="#1f77b4"/><rect x="587" y="424.8353846153846" width="26" height="34.79969230769228" fill="#1f77b4"/><line x1="587" y1="444.0196923076923" x2="613" y2="444.0196923076923" stroke="#FFFFFF"/><circle r="1" cx="600" cy="532.1895384615385" fill="#FFFFFF" stroke="#1f77b4"/><circle r="1" cx="600" cy="371.83138461538465" fill="#FFFFFF" stroke="#1f77b4"/><circle r="1" cx="600" cy="521.9630769230769" fill="#FFFFFF" stroke="#1f77b4"/><circle r="1" cx="600" cy="522.8849230769231" fill="#FFFFFF" stroke="#1f77b4"/><circle r="1" cx="600" cy="321.12123076923075" fill="#FFFFFF" stroke="#1f77b4"/><circle r="1" cx="600" cy="538.72" fill="#FFFFFF" stroke="#1f77b4"/><circle r="1" cx="600" cy="513.4941538461538" fill="#FFFFFF" stroke="#1f77b4"/><circle r="1" cx="600" cy="537.4018461538461" fill="#FFFFFF" stroke="#1f77b4"/><circle r="1" cx="600" cy="512.5033846153846" fill="#FFFFFF" stroke="#1f77b4"/><circle r="1" cx="600" cy="523.0313846153846" fill="#FFFFFF" stroke="#1f77b4"/><circle r="1" cx="600" cy="535.248" fill="#FFFFFF" stroke="#1f77b4"/><circle r="1" cx="600" cy="519.904" fill="#FFFFFF" stroke="#1f77b4"/><circle r="1" cx="600" cy="536.1267692307692" fill="#FFFFFF" stroke="#1f77b4"/><circle r="1" cx="600" cy="533.972923076923" fill="#FFFFFF" stroke="#1f77b4"/><circle r="1" cx="600" cy="335.3883076923077" fill="#FFFFFF" stroke="#1f77b4"/><circle r="1" cx="600" cy="371.72799999999995" fill="#FFFFFF" stroke="#1f77b4"/><circle r="1" cx="600" cy="325.1015384615385" fill="#FFFFFF" stroke="#1f77b4"/><circle r="1" cx="600" cy="349.75876923076925" fill="#FFFFFF" stroke="#1f77b4"/><circle r="1" cx="600" cy="356.22030769230764" fill="#FFFFFF" stroke="#1f77b4"/><circle r="1" cx="600" cy="206.45046153846155" fill="#FFFFFF" stroke="#1f77b4"/><circle r="1" cx="600" cy="529.1396923076923" fill="#FFFFFF" stroke="#1f77b4"/><circle r="1" cx="600" cy="530.3975384615385" fill="#FFFFFF" stroke="#1f77b4"/><circle r="1" cx="600" cy="512.3741538461538" fill="#FFFFFF" stroke="#1f77b4"/><circle r="1" cx="600" cy="528.6658461538461" fill="#FFFFFF" stroke="#1f77b4"/><circle r="1" cx="600" cy="528.3470769230769" fill="#FFFFFF" stroke="#1f77b4"/><circle r="1" cx="600" cy="354.7987692307692" fill="#FFFFFF" stroke="#1f77b4"/><circle r="1" cx="600" cy="532.852923076923" fill="#FFFFFF" stroke="#1f77b4"/><circle r="1" cx="600" cy="519.2147692307692" fill="#FFFFFF" stroke="#1f77b4"/><circle r="1" cx="600" cy="531.1384615384616" fill="#FFFFFF" stroke="#1f77b4"/><circle r="1" cx="600" cy="532.5513846153847" fill="#FFFFFF" stroke="#1f77b4"/><circle r="1" cx="600" cy="525.6763076923078" fill="#FFFFFF" stroke="#1f77b4"/><circle r="1" cx="600" cy="539.2110769230769" fill="#FFFFFF" stroke="#1f77b4"/><circle r="1" cx="600" cy="517.2590769230769" fill="#FFFFFF" stroke="#1f77b4"/><circle r="1" cx="600" cy="310.08492307692313" fill="#FFFFFF" stroke="#1f77b4"/><circle r="1" cx="600" cy="528.7864615384616" fill="#FFFFFF" stroke="#1f77b4"/><circle r="1" cx="600" cy="517.6553846153846" fill="#FFFFFF" stroke="#1f77b4"/><circle r="1" cx="600" cy="517.3969230769231" fill="#FFFFFF" stroke="#1f77b4"/><circle r="1" cx="600" cy="539.7796923076924" fill="#FFFFFF" stroke="#1f77b4"/><circle r="1" cx="600" cy="532.7581538461538" fill="#FFFFFF" stroke="#1f77b4"/><circle r="1" cx="600" cy="535.2824615384616" fill="#FFFFFF" stroke="#1f77b4"/><circle r="1" cx="600" cy="531.4916923076923" fill="#FFFFFF" stroke="#1f77b4"/><circle r="1" cx="600" cy="530.2338461538462" fill="#FFFFFF" stroke="#1f77b4"/><circle r="1" cx="600" cy="360.74338461538457" fill="#FFFFFF" stroke="#1f77b4"/><circle r="1" cx="600" cy="534.6363076923077" fill="#FFFFFF" stroke="#1f77b4"/><circle r="1" cx="600" cy="533.9126153846154" fill="#FFFFFF" stroke="#1f77b4"/><circle r="1" cx="600" cy="535.2566153846154" fill="#FFFFFF" stroke="#1f77b4"/><circle r="1" cx="600" cy="534.507076923077" fill="#FFFFFF" stroke="#1f77b4"/><circle r="1" cx="600" cy="542.192" fill="#FFFFFF" stroke="#1f77b4"/><circle r="1" cx="600" cy="518.5513846153847" fill="#FFFFFF" stroke="#1f77b4"/><circle r="1" cx="600" cy="354.0578461538462" fill="#FFFFFF" stroke="#1f77b4"/><circle r="1" cx="600" cy="232.50338461538462" fill="#FFFFFF" stroke="#1f77b4"/><circle r="1" cx="600" cy="248.98461538461538" fill="#FFFFFF" stroke="#1f77b4"/><circle r="1" cx="600" cy="370.7286153846154" fill="#FFFFFF" stroke="#1f77b4"/><circle r="1" cx="600" cy="168.3876923076923" fill="#FFFFFF" stroke="#1f77b4"/><circle r="1" cx="600" cy="268.8172307692308" fill="#FFFFFF" stroke="#1f77b4"/><circle r="1" cx="600" cy="238.31015384615387" fill="#FFFFFF" stroke="#1f77b4"/><circle r="1" cx="600" cy="355.55692307692306" fill="#FFFFFF" stroke="#1f77b4"/><circle r="1" cx="600" cy="220.8553846153846" fill="#FFFFFF" stroke="#1f77b4"/><circle r="1" cx="600" cy="258.84923076923076" fill="#FFFFFF" stroke="#1f77b4"/><circle r="1" cx="600" cy="164.39015384615385" fill="#FFFFFF" stroke="#1f77b4"/><circle r="1" cx="600" cy="159.62584615384614" fill="#FFFFFF" stroke="#1f77b4"/><circle r="1" cx="600" cy="316.0123076923077" fill="#FFFFFF" stroke="#1f77b4"/><circle r="1" cx="600" cy="292.7076923076923" fill="#FFFFFF" stroke="#1f77b4"/><circle r="1" cx="600" cy="34.375384615384604" fill="#FFFFFF" stroke="#1f77b4"/><circle r="1" cx="600" cy="338.33476923076927" fill="#FFFFFF" stroke="#1f77b4"/><circle r="1" cx="600" cy="305.38953846153845" fill="#FFFFFF" stroke="#1f77b4"/><circle r="1" cx="600" cy="329.62461538461537" fill="#FFFFFF" stroke="#1f77b4"/><circle r="1" cx="600" cy="517.0092307692307" fill="#FFFFFF" stroke="#1f77b4"/><circle r="1" cx="600" cy="517.3710769230769" fill="#FFFFFF" stroke="#1f77b4"/><circle r="1" cx="600" cy="530.4061538461539" fill="#FFFFFF" stroke="#1f77b4"/><circle r="1" cx="600" cy="520.1538461538462" fill="#FFFFFF" stroke="#1f77b4"/><circle r="1" cx="600" cy="522.816" fill="#FFFFFF" stroke="#1f77b4"/><circle r="1" cx="600" cy="528.864" fill="#FFFFFF" stroke="#1f77b4"/><circle r="1" cx="600" cy="534.9464615384616" fill="#FFFFFF" stroke="#1f77b4"/><circle r="1" cx="600" cy="525.1076923076923" fill="#FFFFFF" stroke="#1f77b4"/><circle r="1" cx="600" cy="533.4732307692308" fill="#FFFFFF" stroke="#1f77b4"/><circle r="1" cx="600" cy="528.9156923076923" fill="#FFFFFF" stroke="#1f77b4"/><circle r="1" cx="600" cy="532.8356923076923" fill="#FFFFFF" stroke="#1f77b4"/><circle r="1" cx="600" cy="525.1593846153846" fill="#FFFFFF" stroke="#1f77b4"/><circle r="1" cx="600" cy="518.1033846153846" fill="#FFFFFF" stroke="#1f77b4"/><circle r="1" cx="600" cy="529.6652307692308" fill="#FFFFFF" stroke="#1f77b4"/><circle r="1" cx="600" cy="514.7261538461539" fill="#FFFFFF" stroke="#1f77b4"/><circle r="1" cx="600" cy="517.035076923077" fill="#FFFFFF" stroke="#1f77b4"/><circle r="1" cx="600" cy="518.0258461538461" fill="#FFFFFF" stroke="#1f77b4"/></g><g><line x1="692" x2="692" y1="370.4830769230769" y2="556.3556923076923" stroke="#1f77b4" stroke-dasharray="4"/><line x1="679" x2="705" y1="370.4830769230769" y2="370.4830769230769" stroke="#1f77b4"/><line x1="679" x2="705" y1="556.3556923076923" y2="556.3556923076923" stroke="#1f77b4"/><rect x="679" y="462.71507692307694" width="26" height="61.48799999999994" fill="#1f77b4"/><line x1="679" y1="481.41046153846156" x2="705" y2="481.41046153846156" stroke="#FFFFFF"/><circle r="1" cx="692" cy="350.7409230769231" fill="#FFFFFF" stroke="#1f77b4"/><circle r="1" cx="692" cy="370.37538461538463" fill="#FFFFFF" stroke="#1f77b4"/><circle r="1" cx="692" cy="325.35138461538463" fill="#FFFFFF" stroke="#1f77b4"/><circle r="1" cx="692" cy="357.6418461538462" fill="#FFFFFF" stroke="#1f77b4"/><circle r="1" cx="692" cy="326.7815384615385" fill="#FFFFFF" stroke="#1f77b4"/></g></g><g id="boxplots"><g><text x="65" y="463.75753846153845" dominant-baseline="middle" style="font-family: Arial, sans-serif; font-size: 10px; fill: black; font-weight: normal;">11171</text><text x="65" y="559.3796923076924" dominant-baseline="middle" style="font-family: Arial, sans-serif; font-size: 10px; fill: black; font-weight: normal;">72</text><text x="65" y="530.3716923076923" dominant-baseline="middle" style="font-family: Arial, sans-serif; font-size: 10px; fill: black; font-weight: normal;">3439</text><text x="31" y="544.3243076923077" dominant-baseline="middle" text-anchor="end" style="font-family: Arial, sans-serif; font-size: 10px; fill: black; font-weight: normal;">1819.5</text><text x="44" y="504.4307692307692" dominant-baseline="middle" text-anchor="end" style="font-family: Arial, sans-serif; font-size: 10px; fill: black; font-weight: normal;">6450</text></g><g><text x="157" y="442.1038461538462" dominant-baseline="middle" style="font-family: Arial, sans-serif; font-size: 10px; fill: black; font-weight: normal;">13684.375</text><text x="157" y="558.4233846153846" dominant-baseline="middle" style="font-family: Arial, sans-serif; font-size: 10px; fill: black; font-weight: normal;">183</text><text x="157" y="519.8221538461538" dominant-baseline="middle" style="font-family: Arial, sans-serif; font-size: 10px; fill: black; font-weight: normal;">4663.5</text><text x="123" y="537.0615384615385" dominant-baseline="middle" text-anchor="end" style="font-family: Arial, sans-serif; font-size: 10px; fill: black; font-weight: normal;">2662.5</text><text x="136" y="499.0784615384615" dominant-baseline="middle" text-anchor="end" style="font-family: Arial, sans-serif; font-size: 10px; fill: black; font-weight: normal;">7071.25</text></g><g><text x="249" y="489.4486153846154" dominant-baseline="middle" style="font-family: Arial, sans-serif; font-size: 10px; fill: black; font-weight: normal;">8189</text><text x="249" y="559.4572307692308" dominant-baseline="middle" style="font-family: Arial, sans-serif; font-size: 10px; fill: black; font-weight: normal;">63</text><text x="249" y="547.7446153846154" dominant-baseline="middle" style="font-family: Arial, sans-serif; font-size: 10px; fill: black; font-weight: normal;">1422.5</text><text x="215" y="555.1624615384615" dominant-baseline="middle" text-anchor="end" style="font-family: Arial, sans-serif; font-size: 10px; fill: black; font-weight: normal;">561.5</text><text x="228" y="528.876923076923" dominant-baseline="middle" text-anchor="end" style="font-family: Arial, sans-serif; font-size: 10px; fill: black; font-weight: normal;">3612.5</text></g><g><text x="341" y="336.59876923076916" dominant-baseline="middle" style="font-family: Arial, sans-serif; font-size: 10px; fill: black; font-weight: normal;">25930.5</text><text x="341" y="555.1753846153846" dominant-baseline="middle" style="font-family: Arial, sans-serif; font-size: 10px; fill: black; font-weight: normal;">560</text><text x="341" y="472.9673846153846" dominant-baseline="middle" style="font-family: Arial, sans-serif; font-size: 10px; fill: black; font-weight: normal;">10102</text><text x="307" y="496.9526153846154" dominant-baseline="middle" text-anchor="end" style="font-family: Arial, sans-serif; font-size: 10px; fill: black; font-weight: normal;">7318</text><text x="320" y="432.8110769230769" dominant-baseline="middle" text-anchor="end" style="font-family: Arial, sans-serif; font-size: 10px; fill: black; font-weight: normal;">14763</text></g><g><text x="433" y="308.38338461538467" dominant-baseline="middle" style="font-family: Arial, sans-serif; font-size: 10px; fill: black; font-weight: normal;">29205.5</text><text x="433" y="558.7938461538462" dominant-baseline="middle" style="font-family: Arial, sans-serif; font-size: 10px; fill: black; font-weight: normal;">140</text><text x="433" y="441.2541538461538" dominant-baseline="middle" style="font-family: Arial, sans-serif; font-size: 10px; fill: black; font-weight: normal;">13783</text><text x="399" y="469.12492307692304" dominant-baseline="middle" text-anchor="end" style="font-family: Arial, sans-serif; font-size: 10px; fill: black; font-weight: normal;">10548</text><text x="412" y="404.82830769230765" dominant-baseline="middle" text-anchor="end" style="font-family: Arial, sans-serif; font-size: 10px; fill: black; font-weight: normal;">18011</text></g><g><text x="525" y="347.85046153846156" dominant-baseline="middle" style="font-family: Arial, sans-serif; font-size: 10px; fill: black; font-weight: normal;">24624.5</text><text x="525" y="541.0203076923077" dominant-baseline="middle" style="font-family: Arial, sans-serif; font-size: 10px; fill: black; font-weight: normal;">2203</text><text x="525" y="453.2553846153846" dominant-baseline="middle" style="font-family: Arial, sans-serif; font-size: 10px; fill: black; font-weight: normal;">12390</text><text x="491" y="482.9181538461538" dominant-baseline="middle" text-anchor="end" style="font-family: Arial, sans-serif; font-size: 10px; fill: black; font-weight: normal;">8947</text><text x="504" y="428.8910769230769" dominant-baseline="middle" text-anchor="end" style="font-family: Arial, sans-serif; font-size: 10px; fill: black; font-weight: normal;">15218</text></g><g><text x="617" y="372.63584615384616" dominant-baseline="middle" style="font-family: Arial, sans-serif; font-size: 10px; fill: black; font-weight: normal;">21747.625</text><text x="617" y="511.8346153846154" dominant-baseline="middle" style="font-family: Arial, sans-serif; font-size: 10px; fill: black; font-weight: normal;">5590.625</text><text x="617" y="444.0196923076923" dominant-baseline="middle" style="font-family: Arial, sans-serif; font-size: 10px; fill: black; font-weight: normal;">13462</text><text x="583" y="459.6350769230769" dominant-baseline="middle" text-anchor="end" style="font-family: Arial, sans-serif; font-size: 10px; fill: black; font-weight: normal;">11649.5</text><text x="596" y="424.8353846153846" dominant-baseline="middle" text-anchor="end" style="font-family: Arial, sans-serif; font-size: 10px; fill: black; font-weight: normal;">15688.75</text></g><g><text x="709" y="370.4830769230769" dominant-baseline="middle" style="font-family: Arial, sans-serif; font-size: 10px; fill: black; font-weight: normal;">21997.5</text><text x="709" y="556.3556923076923" dominant-baseline="middle" style="font-family: Arial, sans-serif; font-size: 10px; fill: black; font-weight: normal;">423</text><text x="709" y="481.41046153846156" dominant-baseline="middle" style="font-family: Arial, sans-serif; font-size: 10px; fill: black; font-weight: normal;">9122</text><text x="675" y="524.2030769230769" dominant-baseline="middle" text-anchor="end" style="font-family: Arial, sans-serif; font-size: 10px; fill: black; font-weight: normal;">4155</text><text x="688" y="462.71507692307694" dominant-baseline="middle" text-anchor="end" style="font-family: Arial, sans-serif; font-size: 10px; fill: black; font-weight: normal;">11292</text></g></g></g></svg>